<?xml version="1.0" encoding="iso-8859-1"?>
<!-- Generator: Adobe Illustrator 19.0.0, SVG Export Plug-In . SVG Version: 6.00 Build 0)  -->
<svg version="1.1" id="Layer_1" xmlns="http://www.w3.org/2000/svg" xmlns:xlink="http://www.w3.org/1999/xlink" x="0px" y="0px"
	 viewBox="0 0 512 512" style="enable-background:new 0 0 512 512;" xml:space="preserve">
<polygon style="fill:#FF7099;" points="501.801,213.023 298.977,213.023 298.977,10.199 213.023,10.199 213.023,213.023
	10.199,213.023 10.199,298.977 213.023,298.977 213.023,501.801 298.977,501.801 298.977,298.977 501.801,298.977 "/>
<g>
	<path style="fill:#DB006E;" d="M298.978,512h-85.956c-5.632,0-10.199-4.566-10.199-10.199V309.177H10.199
		C4.567,309.177,0,304.61,0,298.977v-85.956c0-5.633,4.567-10.199,10.199-10.199h192.623V10.199C202.822,4.566,207.39,0,213.022,0
		h85.956c5.632,0,10.199,4.566,10.199,10.199v192.623h192.624c5.632,0,10.199,4.566,10.199,10.199v85.956
		c0,5.633-4.567,10.199-10.199,10.199H309.178v192.624C309.178,507.434,304.61,512,298.978,512z M223.221,491.602h65.557V298.977
		c0-5.633,4.567-10.199,10.199-10.199h192.624v-65.557H298.978c-5.632,0-10.199-4.566-10.199-10.199V20.398h-65.557v192.623
		c0,5.633-4.567,10.199-10.199,10.199H20.398v65.557h192.623c5.632,0,10.199,4.566,10.199,10.199V491.602z"/>
	<path style="fill:#DB006E;" d="M425.307,278.438H322.24c-5.632,0-10.199-4.566-10.199-10.199s4.567-10.199,10.199-10.199h103.067
		c5.632,0,10.199,4.566,10.199,10.199S430.939,278.438,425.307,278.438z"/>
	<path style="fill:#DB006E;" d="M466.104,278.438h-6.901c-5.632,0-10.199-4.566-10.199-10.199s4.567-10.199,10.199-10.199h6.901
		c5.632,0,10.199,4.566,10.199,10.199S471.736,278.438,466.104,278.438z"/>
</g>
<g>
</g>
<g>
</g>
<g>
</g>
<g>
</g>
<g>
</g>
<g>
</g>
<g>
</g>
<g>
</g>
<g>
</g>
<g>
</g>
<g>
</g>
<g>
</g>
<g>
</g>
<g>
</g>
<g>
</g>
</svg>
